<?xml version="1.0" encoding="UTF-8"?>
<svg id="Ebene_1" xmlns="http://www.w3.org/2000/svg" version="1.1" viewBox="0 0 592.6 162.1">
  <!-- Generator: Adobe Illustrator 29.6.1, SVG Export Plug-In . SVG Version: 2.1.1 Build 9)  -->
  <path d="M51.9,15.7h-19v59.6h-11.1V15.7H2.8V6.3h49.1v9.4Z" fill="#111"/>
  <path d="M98.6,75.3h-10.4c0-4,.2-7.4.7-10h-.1c-3.3,7.4-9.2,11-17.7,11s-15.1-5.4-15.1-16.3V24.5h10.8v32.6c0,6.7,2.5,10.1,7.6,10.1s7-1.8,9.5-5.3c2.5-3.5,3.8-7.9,3.8-13v-24.4h10.9v50.8Z" fill="#111"/>
  <path d="M141,23.6l-.5,10.7c-1.1-.2-2.1-.3-3.1-.3-8,0-12,6.9-12,20.6v20.6h-10.9V24.5h10.4c0,3.8-.3,7.6-1,11.2h.2c2.7-8.2,7.6-12.3,14.9-12.3s1.3,0,1.9.1Z" fill="#111"/>
  <path d="M193.5,75.1h-10.8v-32.6c0-6.7-2.5-10.1-7.6-10.1s-7,1.8-9.5,5.3c-2.5,3.5-3.8,7.9-3.8,13v24.4h-10.9V24.3h10.4c0,4-.2,7.4-.7,10h.1c3.3-7.4,9.2-11,17.7-11s15.1,5.4,15.1,16.3v35.6Z" fill="#111"/>
  <path d="M221.8,8.7c0,1.9-.7,3.5-2,4.9-1.4,1.3-3,2-4.9,2s-3.6-.7-5-2c-1.4-1.3-2-2.9-2-4.9s.7-3.5,2-4.9c1.4-1.3,3-2,5-2s3.5.7,4.9,2c1.4,1.3,2,2.9,2,4.9ZM220.2,75.3h-10.9V24.5h10.9v50.8Z" fill="#111"/>
  <path d="M279.9,75.3h-10.8v-32.6c0-6.7-2.5-10.1-7.6-10.1s-7,1.8-9.5,5.3c-2.5,3.5-3.8,7.9-3.8,13v24.4h-10.9V24.5h10.4c0,4-.2,7.4-.7,10h.1c3.3-7.4,9.2-11,17.7-11s15.1,5.4,15.1,16.3v35.6Z" fill="#111"/>
  <path d="M340.9,81.5c0,5.6-2.5,10.2-7.5,14-5.2,3.9-11.8,5.8-19.8,5.8s-12-1.3-15.8-3.9c-3.8-2.6-5.7-6.4-5.7-11.3s.8-5.2,2.5-7.8c1.6-2.2,3.5-4,5.8-5.3-3.3-1.4-5-4-5-7.7s1.9-7,5.8-8.8c-5-2.9-7.6-7.5-7.6-13.9s1.9-9.8,5.6-13.4c4-3.8,9.5-5.7,16.4-5.7s4.7.3,7.7,1h17.3v8.6h-7.8c2.3,1.9,3.4,4.6,3.4,8.1,0,5.5-1.8,9.9-5.4,13.2-3.8,3.5-9.2,5.2-16.1,5.2s-3.2-.2-4.8-.6c-2,1-3,2.2-3,3.8s.6,2.2,1.9,2.7c1.3.5,3.4.8,6.5,1l8.6.4c11.4.4,17.2,5.3,17.2,14.7ZM330.1,83c0-4.8-3.1-7.3-9.4-7.5l-9.3-.3h-2.8c-3.8,2.7-5.7,5.7-5.7,8.9s1.1,4.7,3.4,6.3c2.3,1.6,5.3,2.3,9,2.3s8.2-.9,10.8-2.7c2.6-1.8,3.9-4.2,3.9-7ZM325.6,41.8c0-3.1-.9-5.6-2.8-7.5-1.8-1.8-4.4-2.8-7.8-2.8s-6,1-7.9,2.9c-1.9,1.9-2.9,4.4-2.9,7.4,0,6.7,3.5,10.1,10.6,10.1s6-.9,7.9-2.7c1.9-1.8,2.9-4.3,2.9-7.4Z" fill="#111"/>
  <path d="M418,26.6c0,6.8-2.5,12.4-7.4,16.8-4.9,4.4-11.4,6.7-19.4,6.7h-5.1v25.3h-11.1V6.2c7.1-.3,13-.4,17.7-.4,8.1,0,14.4,1.8,18.8,5.5,4.4,3.7,6.6,8.8,6.6,15.3ZM406.5,27.6c0-8.4-4.9-12.7-14.6-12.7s-4.5,0-5.7.2v25.4c2.1.3,3.8.4,4.9.4,4.7,0,8.5-1.3,11.2-3.7,2.8-2.4,4.2-5.6,4.2-9.7Z" fill="#111"/>
  <path d="M490.8,8.7c0,1.9-.7,3.5-2,4.9-1.4,1.3-3,2-4.9,2s-3.6-.7-5-2c-1.4-1.3-2-2.9-2-4.9s.7-3.5,2-4.9c1.4-1.3,3-2,5-2s3.5.7,4.9,2c1.4,1.3,2,2.9,2,4.9ZM489.3,75.3h-10.9V24.5h10.9v50.8Z" fill="#111"/>
  <path d="M548.1,75.3h-10.8v-32.6c0-6.7-2.5-10.1-7.6-10.1s-7,1.8-9.5,5.3c-2.5,3.5-3.8,7.9-3.8,13v24.4h-10.9V24.5h10.4c0,4-.2,7.4-.7,10h.1c3.3-7.4,9.2-11,17.7-11s15.1,5.4,15.1,16.3v35.6Z" fill="#111"/>
  <path d="M590.2,75c-3.5.8-7,1.2-10.6,1.2-5.3,0-9-1.2-11-3.5-2-2.3-3.1-6.3-3.1-12v-27.6h-9.7v-8.6h9.7V8.4l10.9-3v19.1h13.3v8.6h-13.3v24.3c0,3.7.5,6.3,1.4,7.6.9,1.3,2.7,2,5.3,2s4.1-.2,6.2-.7l.9,8.8Z" fill="#111"/>
  <path d="M469.5,50c0,13.9-11.3,25.2-25.2,25.2s-25.2-11.3-25.2-25.2,11.3-25.2,25.2-25.2,25.2,11.3,25.2,25.2Z" fill="#e3000f"/>
  <path d="M210.8,159.7h-4.7v-49.8h4.7v49.8Z" fill="#111"/>
  <path d="M253.5,159.7h-4.7v-23.7c0-3.2-.5-5.6-1.5-7.2-1.2-1.7-3.1-2.6-5.9-2.6s-6.2,1.5-8.4,4.5c-2.2,3-3.3,6.8-3.3,11.5v17.5h-4.7v-36.6h4.7c0,3.4-.2,6.2-.7,8.6h.1c2.3-6.1,6.7-9.1,13.3-9.1s11.1,3.9,11.1,11.7v25.5Z" fill="#111"/>
  <path d="M294.2,123.1l-14.2,36.6h-4.9l-13.9-36.6h5.3l9.1,25.6c.8,2.3,1.4,4.3,2,6.1h0c.5-1.8,1.2-3.8,2-5.9l9.4-25.8h5.2Z" fill="#111"/>
  <path d="M328,137.2c0,.9,0,1.8-.1,2.7h-24.8c-.4,11,3.8,16.5,12.6,16.5s7.2-.7,10.3-2.2l.9,3.9c-3.6,1.5-7.7,2.2-12.2,2.2-11,0-16.5-6.3-16.5-18.8s1.4-10.2,4.3-13.7c2.8-3.5,6.7-5.3,11.6-5.3s8.3,1.5,10.8,4.4c2.2,2.6,3.3,6,3.3,10.3ZM323.1,136.4c0-3.1-.7-5.6-2.4-7.5-1.7-1.9-4.1-2.8-7-2.8s-5,.9-6.8,2.8c-1.8,1.8-3,4.4-3.5,7.6h19.8Z" fill="#111"/>
  <path d="M359,149c0,3.2-1.3,5.9-4,8-2.8,2.2-6.5,3.3-11.1,3.3s-6-.3-8.2-1l.7-4.4c2.5,1,5.3,1.5,8.4,1.5s5.1-.6,6.8-1.8c1.8-1.2,2.7-2.9,2.7-4.9s-1.6-4.4-4.8-5.6c-3-1-6-2-9-3-3.2-1.6-4.8-4.3-4.8-8.1s1.2-5.7,3.6-7.6c2.4-1.9,5.8-2.9,10.2-2.9s5.1.3,7.4.8l-.6,4c-2.6-.7-5-1.1-7.4-1.1-5.7,0-8.5,2.1-8.5,6.3s1.6,4.4,4.8,5.7c2.9,1,5.9,2,8.9,2.9,3.2,1.6,4.8,4.3,4.8,7.9Z" fill="#111"/>
  <path d="M387.9,159.5c-2.2.5-4.5.7-7,.7-3.5,0-5.9-.9-7.3-2.6-1.3-1.6-1.9-4.3-1.9-8v-22.9h-8.3v-3.7h8.3v-12.4l4.7-1.3v13.6h11.2v3.7h-11.2v20.6c0,3.5.4,5.8,1.2,7,.8,1.2,2.3,1.8,4.6,1.8s3.6-.2,5.1-.6l.7,4Z" fill="#111"/>
  <path d="M448.7,159.7h-4.7v-23.7c0-3.2-.5-5.6-1.4-7.1-1.1-1.8-3-2.7-5.7-2.7s-5.9,1.4-8.1,4.3c-2.4,3-3.5,7-3.5,11.9v17.3h-4.7v-23.8c0-3-.4-5.3-1.3-6.8-1.1-1.9-3.1-2.9-5.8-2.9s-6,1.5-8.2,4.6c-2.2,3-3.3,6.9-3.3,11.6v17.3h-4.7v-36.6h4.7c0,3.3-.2,6.2-.7,8.6h.2c1-2.8,2.7-5,5.1-6.7,2.3-1.6,5-2.5,8.1-2.5s6.6,1.2,8.4,3.5c1.2,1.6,1.8,3.5,1.8,5.5.8-2.3,2.2-4.2,4.1-5.8,2.5-2.2,5.4-3.2,8.9-3.2,7.2,0,10.9,3.9,10.9,11.8v25.4Z" fill="#111"/>
  <path d="M489,137.2c0,.9,0,1.8-.1,2.7h-24.8c-.4,11,3.8,16.5,12.6,16.5s7.2-.7,10.3-2.2l.9,3.9c-3.6,1.5-7.7,2.2-12.2,2.2-11,0-16.5-6.3-16.5-18.8s1.4-10.2,4.3-13.7c2.9-3.5,6.7-5.3,11.6-5.3s8.3,1.5,10.8,4.4c2.2,2.6,3.3,6,3.3,10.3ZM484,136.4c0-3.1-.7-5.6-2.4-7.5-1.7-1.9-4.1-2.8-7-2.8s-5,.9-6.8,2.8c-1.8,1.8-3,4.4-3.5,7.6h19.8Z" fill="#111"/>
  <path d="M528.2,159.7h-4.7v-23.7c0-3.2-.5-5.6-1.5-7.2-1.2-1.7-3.1-2.6-5.9-2.6s-6.2,1.5-8.4,4.5c-2.2,3-3.3,6.8-3.3,11.5v17.5h-4.7v-36.6h4.7c0,3.4-.2,6.2-.7,8.6h.1c2.3-6.1,6.7-9.1,13.3-9.1s11.1,3.9,11.1,11.7v25.5Z" fill="#111"/>
  <path d="M559.7,159.5c-2.2.5-4.5.7-7,.7-3.5,0-5.9-.9-7.3-2.6-1.3-1.6-1.9-4.3-1.9-8v-22.9h-8.3v-3.7h8.3v-12.4l4.7-1.3v13.6h11.2v3.7h-11.2v20.6c0,3.5.4,5.8,1.2,7,.8,1.2,2.3,1.8,4.6,1.8s3.6-.2,5.1-.6l.7,4Z" fill="#111"/>
  <path d="M589.6,149c0,3.2-1.3,5.9-4,8-2.8,2.2-6.5,3.3-11.1,3.3s-6-.3-8.2-1l.7-4.4c2.5,1,5.3,1.5,8.4,1.5s5.1-.6,6.8-1.8c1.8-1.2,2.7-2.9,2.7-4.9s-1.6-4.4-4.8-5.6c-3-1-6-2-9-3-3.2-1.6-4.8-4.3-4.8-8.1s1.2-5.7,3.6-7.6c2.4-1.9,5.8-2.9,10.3-2.9s5.1.3,7.4.8l-.6,4c-2.6-.7-5-1.1-7.4-1.1-5.7,0-8.5,2.1-8.5,6.3s1.6,4.4,4.9,5.7c2.9,1,5.9,2,8.9,2.9,3.2,1.6,4.9,4.3,4.9,7.9Z" fill="#111"/>
</svg>